<svg width="193px" height="121.6px" xmlns="http://www.w3.org/2000/svg" viewBox="153.4812469482422 14.199996948242188 193.03750610351562 121.60000610351562" style="background: rgba(0, 0, 0, 0)" preserveAspectRatio="xMidYMid"><defs><linearGradient id="editing-gradient-gradient" x1="0" x2="1" y1="0.5" y2="0.5" gradientUnits="objectBoundingBox"><stop offset="0" stop-color="#217ada"></stop><stop offset="1" stop-color="#f15ff3"></stop></linearGradient></defs><g><g transform="matrix(1.2,0,0,1.6,153.4,179)"><path d="M 39.7 -56.4 L 39.7 -55.8 L 39.7 -55.8 Q 39.7 -53.4 41.4 -53.4 L 41.4 -53.4 L 41.4 -53.4 Q 43.9 -53.4 45.9 -57.1 L 45.9 -57.1 L 45.9 -57.1 Q 47.8 -60.7 47.8 -65.1 L 47.8 -65.1 L 47.8 -65.1 Q 47.8 -72.6 44.2 -76.1 L 44.2 -76.1 L 44.2 -76.1 Q 40.6 -79.5 33.1 -79.5 L 33.1 -79.5 L 33.1 -79.5 Q 29.3 -79.5 25.8 -77.9 L 25.8 -77.9 L 25.8 -77.9 Q 22.2 -76.2 19.5 -73.2 L 19.5 -73.2 L 19.5 -73.2 Q 16.9 -70.3 15.3 -66.2 L 15.3 -66.2 L 15.3 -66.2 Q 13.7 -62.1 13.7 -57.3 L 13.7 -57.3 L 13.7 -57.3 Q 13.7 -50.3 17.8 -47.3 L 17.8 -47.3 L 17.8 -47.3 Q 21.9 -44.3 29.6 -44.3 L 29.6 -44.3 L 29.6 -44.3 Q 32.7 -44.3 35.7 -45.3 L 35.7 -45.3 L 35.7 -45.3 Q 38.6 -46.3 40.2 -47.5 L 40.2 -47.5 L 40.2 -47.5 Q 40.5 -47.3 40.8 -46.7 L 40.8 -46.7 L 40.8 -46.7 Q 41.1 -46.1 41.1 -45.6 L 41.1 -45.6 L 41.1 -45.6 Q 41.1 -43.2 38.7 -41.8 L 38.7 -41.8 L 38.7 -41.8 Q 34.3 -39.4 28.6 -39.4 L 28.6 -39.4 L 28.6 -39.4 Q 23 -39.4 19.1 -40.4 L 19.1 -40.4 L 19.1 -40.4 Q 15.1 -41.4 12.4 -43.4 L 12.4 -43.4 L 12.4 -43.4 Q 6.6 -47.7 6.6 -55.5 L 6.6 -55.5 L 6.6 -55.5 Q 6.6 -61.5 8.9 -66.7 L 8.9 -66.7 L 8.9 -66.7 Q 11.3 -71.9 15.3 -75.8 L 15.3 -75.8 L 15.3 -75.8 Q 19.2 -79.7 24.4 -81.9 L 24.4 -81.9 L 24.4 -81.9 Q 29.5 -84.1 34.4 -84.1 L 34.4 -84.1 L 34.4 -84.1 Q 39.3 -84.1 42.8 -83 L 42.8 -83 L 42.8 -83 Q 46.3 -81.8 48.9 -79.7 L 48.9 -79.7 L 48.9 -79.7 Q 54.4 -75.1 54.4 -66.9 L 54.4 -66.9 L 54.4 -66.9 Q 54.4 -59.4 50.3 -54.5 L 50.3 -54.5 L 50.3 -54.5 Q 46.5 -49.8 40.7 -49.8 L 40.7 -49.8 L 40.7 -49.8 Q 37.9 -49.8 36.3 -50.8 L 36.3 -50.8 L 36.3 -50.8 Q 34.8 -51.8 34.3 -54.3 L 34.3 -54.3 L 34.3 -54.3 Q 33.3 -51.7 31.5 -50.8 L 31.5 -50.8 L 31.5 -50.8 Q 29.7 -49.8 27.1 -49.8 L 27.1 -49.8 L 27.1 -49.8 Q 18.9 -49.8 18.9 -59.5 L 18.9 -59.5 L 18.9 -59.5 Q 18.9 -65.6 22.5 -69.9 L 22.5 -69.9 L 22.5 -69.9 Q 26.1 -74.3 31.6 -74.3 L 31.6 -74.3 L 31.6 -74.3 Q 33.8 -74.3 35.8 -73.5 L 35.8 -73.5 L 42.7 -74.3 L 39.8 -57 L 39.8 -57 Q 39.7 -56.7 39.7 -56.4 L 39.7 -56.4 Z M 31.8 -57.8 L 34.3 -71.3 L 34.3 -71.3 Q 33.6 -71.9 32.4 -71.9 L 32.4 -71.9 L 32.4 -71.9 Q 31.3 -71.9 30.2 -70.6 L 30.2 -70.6 L 30.2 -70.6 Q 29.1 -69.4 28.4 -67.1 L 28.4 -67.1 L 28.4 -67.1 Q 26.7 -62.4 26.7 -55.7 L 26.7 -55.7 L 26.7 -55.7 Q 26.7 -54.5 27.2 -53.9 L 27.2 -53.9 L 27.2 -53.9 Q 27.7 -53.2 28.3 -53.2 L 28.3 -53.2 L 28.3 -53.2 Q 29.5 -53.2 30.5 -54.5 L 30.5 -54.5 L 30.5 -54.5 Q 31.5 -55.8 31.8 -57.8 L 31.8 -57.8 Z M 67 -44.5 L 67 -44.5 Q 61.9 -44.8 59 -46.7 L 59 -46.7 L 59 -46.7 Q 56.1 -48.7 56.1 -52 L 56.1 -52 L 56.1 -52 Q 56.1 -55.2 58 -57.3 L 58 -57.3 L 58 -57.3 Q 60 -59.4 63.1 -59.4 L 63.1 -59.4 L 63.1 -59.4 Q 65.8 -59.4 67.7 -58.6 L 67.7 -58.6 L 67.7 -58.6 Q 66.5 -56.4 66.5 -53.7 L 66.5 -53.7 L 66.5 -53.7 Q 66.5 -50.9 67.4 -49.8 L 67.4 -49.8 L 67.4 -49.8 Q 68.3 -48.7 70.6 -48.7 L 70.6 -48.7 L 70.6 -48.7 Q 72.9 -48.7 74.6 -50.1 L 74.6 -50.1 L 74.6 -50.1 Q 76.3 -51.4 76.3 -53.8 L 76.3 -53.8 L 76.3 -53.8 Q 76.3 -56.1 75.1 -57.5 L 75.1 -57.5 L 75.1 -57.5 Q 73.9 -58.9 72.1 -60 L 72.1 -60 L 72.1 -60 Q 70.3 -61.1 68.2 -62.2 L 68.2 -62.2 L 68.2 -62.2 Q 66.1 -63.3 64.3 -64.8 L 64.3 -64.8 L 64.3 -64.8 Q 60.2 -68.3 60.2 -74 L 60.2 -74 L 60.2 -74 Q 60.2 -79.4 64.6 -83.6 L 64.6 -83.6 L 64.6 -83.6 Q 69 -87.8 75.7 -88.8 L 75.7 -88.8 L 76.1 -90.6 L 76.1 -90.6 Q 76.6 -93.4 77.5 -94.4 L 77.5 -94.4 L 77.5 -94.4 Q 78.4 -95.4 80.1 -95.4 L 80.1 -95.4 L 80.1 -95.4 Q 81.8 -95.4 83.2 -95 L 83.2 -95 L 81.9 -89 L 81.9 -89 Q 87.1 -88.6 89.9 -86.6 L 89.9 -86.6 L 89.9 -86.6 Q 92.7 -84.7 92.7 -81.6 L 92.7 -81.6 L 92.7 -81.6 Q 92.7 -78.5 90.6 -76.7 L 90.6 -76.7 L 90.6 -76.7 Q 88.4 -74.9 85 -74.9 L 85 -74.9 L 85 -74.9 Q 82.8 -74.9 81.3 -75.5 L 81.3 -75.5 L 81.3 -75.5 Q 81.7 -76.3 82.1 -77.8 L 82.1 -77.8 L 82.1 -77.8 Q 82.5 -79.2 82.5 -80.1 L 82.5 -80.1 L 82.5 -80.1 Q 82.5 -80.9 82.3 -81.8 L 82.3 -81.8 L 82.3 -81.8 Q 82.2 -82.7 81.8 -83.5 L 81.8 -83.5 L 81.8 -83.5 Q 80.9 -85.1 78.3 -85.1 L 78.3 -85.1 L 78.3 -85.1 Q 75.7 -85.1 74.1 -83.4 L 74.1 -83.4 L 74.1 -83.4 Q 72.6 -81.7 72.6 -79.3 L 72.6 -79.3 L 72.6 -79.3 Q 72.6 -77 73.9 -75.6 L 73.9 -75.6 L 73.9 -75.6 Q 75.1 -74.2 76.9 -73 L 76.9 -73 L 76.9 -73 Q 78.7 -71.7 80.9 -70.4 L 80.9 -70.4 L 80.9 -70.4 Q 83.1 -69.1 85 -67.6 L 85 -67.6 L 85 -67.6 Q 89.2 -63.9 89.2 -59.3 L 89.2 -59.3 L 89.2 -59.3 Q 89.2 -53.6 84.7 -49.6 L 84.7 -49.6 L 84.7 -49.6 Q 80.2 -45.7 73.4 -44.7 L 73.4 -44.7 L 73.1 -42.9 L 73.1 -42.9 Q 72.5 -40.1 71.6 -39.1 L 71.6 -39.1 L 71.6 -39.1 Q 70.7 -38.1 68.8 -38.1 L 68.8 -38.1 L 68.8 -38.1 Q 67 -38.1 65.8 -38.5 L 65.8 -38.5 L 67 -44.5 Z M 125.9 -52.7 L 125.9 -52.7 L 125.9 -52.7 Q 125.9 -49.9 128.7 -49.1 L 128.7 -49.1 L 128.7 -49.1 Q 128 -46.7 125.3 -45.4 L 125.3 -45.4 L 125.3 -45.4 Q 123 -44.3 120.4 -44.3 L 120.4 -44.3 L 120.4 -44.3 Q 117.9 -44.3 116.6 -45 L 116.6 -45 L 116.6 -45 Q 115.3 -45.7 114.6 -46.8 L 114.6 -46.8 L 114.6 -46.8 Q 113.4 -48.4 113.4 -51.6 L 113.4 -51.6 L 113.4 -51.6 Q 113.4 -53.4 114.5 -58.6 L 114.5 -58.6 L 115.4 -63.4 L 115.4 -63.4 Q 116.4 -69 116.4 -71 L 116.4 -71 L 116.4 -71 Q 116.4 -74.6 114.5 -74.6 L 114.5 -74.6 L 114.5 -74.6 Q 112 -74.6 110.4 -71 L 110.4 -71 L 110.4 -71 Q 109.7 -69.6 109.3 -67.4 L 109.3 -67.4 L 104.9 -45.6 L 92.1 -44.3 L 101.1 -90.4 L 113.9 -91.7 L 113.4 -89.1 L 113.4 -89.1 Q 111.6 -79.3 110.1 -76 L 110.1 -76 L 110.1 -76 Q 113.7 -79.5 120.3 -79.5 L 120.3 -79.5 L 120.3 -79.5 Q 127.3 -79.5 128.5 -74.9 L 128.5 -74.9 L 128.5 -74.9 Q 129 -73.5 129 -72.2 L 129 -72.2 L 129 -72.2 Q 129 -70.9 128.9 -69.9 L 128.9 -69.9 L 128.9 -69.9 Q 128.8 -68.9 128.5 -67.1 L 128.5 -67.1 L 127.6 -62.5 L 126.2 -55.3 L 126.2 -55.3 Q 125.9 -53.8 125.9 -52.7 Z" fill="url(#editing-gradient-gradient)"></path></g></g><style>text {
  font-size: 64px;
  font-family: Arial Black;
  dominant-baseline: central;
  text-anchor: middle;
}</style></svg>